<svg aria-hidden="true" style="position: absolute; width: 0; height: 0; overflow: hidden;" version="1.1" xmlns="http://www.w3.org/2000/svg" xmlns:xlink="http://www.w3.org/1999/xlink">
<defs>
<symbol id="icon-whatsapp" viewBox="0 0 31 32">
<path d="M26.785 5.068c-2.86-2.798-6.661-4.338-10.705-4.338-0 0-0.001 0-0.001 0-2 0-3.95 0.379-5.793 1.126s-3.496 1.828-4.911 3.212c-2.859 2.798-4.434 6.517-4.434 10.474 0 2.359 0.582 4.704 1.684 6.793l-2.545 7.113c-0.179 0.502-0.052 1.047 0.332 1.423 0.269 0.263 0.623 0.403 0.987 0.403 0.156 0 0.314-0.026 0.468-0.078l7.27-2.489c2.135 1.079 4.532 1.648 6.944 1.648 4.044 0 7.846-1.541 10.705-4.338s4.434-6.517 4.434-10.474c0-3.957-1.575-7.676-4.434-10.474zM25.49 24.749c-2.514 2.459-5.856 3.814-9.41 3.814-2.175 0-4.335-0.526-6.248-1.522-0.347-0.18-0.757-0.211-1.125-0.085l-6.605 2.262 2.312-6.462c0.129-0.36 0.097-0.762-0.087-1.101-1.018-1.871-1.556-3.984-1.556-6.112 0-3.478 1.384-6.748 3.898-9.207s5.855-3.813 9.41-3.814h0.001c3.555 0 6.897 1.354 9.41 3.814s3.898 5.729 3.898 9.207c0 3.478-1.384 6.748-3.898 9.207z"></path>
<path d="M21.706 16.865c-0.696-0.681-1.83-0.681-2.526 0l-0.762 0.745c-1.891-1.008-3.422-2.506-4.453-4.356l0.762-0.745c0.697-0.681 0.697-1.79 0-2.472l-2.053-2.008c-0.697-0.681-1.83-0.681-2.526 0l-1.642 1.607c-0.941 0.92-0.988 2.502-0.132 4.455 0.743 1.695 2.102 3.559 3.827 5.246s3.63 3.018 5.363 3.744c0.948 0.398 1.811 0.596 2.556 0.596 0.823 0 1.504-0.242 1.997-0.725l1.642-1.607c0.338-0.33 0.523-0.769 0.523-1.236s-0.186-0.906-0.523-1.236l-2.053-2.009zM20.822 21.685c-0.268 0.263-1.094 0.355-2.537-0.25-1.524-0.639-3.225-1.834-4.789-3.365s-2.786-3.194-3.439-4.685c-0.619-1.412-0.524-2.22-0.256-2.482l1.611-1.576 1.989 1.946-0.954 0.933c-0.431 0.422-0.535 1.061-0.259 1.592 1.254 2.405 3.216 4.324 5.674 5.551 0.542 0.271 1.196 0.169 1.627-0.253l0.953-0.933 1.99 1.946-1.611 1.576z"></path>
</symbol>
<symbol id="icon-facebook" viewBox="0 0 31 32">
<path d="M17.717 31.214h-5.009c-0.837 0-1.517-0.665-1.517-1.482v-11.033h-2.923c-0.837 0-1.517-0.665-1.517-1.482v-4.727c0-0.817 0.681-1.482 1.517-1.482h2.923v-2.367c0-2.347 0.755-4.344 2.183-5.775 1.434-1.437 3.439-2.197 5.797-2.197l3.82 0.006c0.835 0.001 1.515 0.666 1.515 1.482v4.389c0 0.817-0.68 1.482-1.517 1.482l-2.572 0.001c-0.784 0-0.984 0.154-1.027 0.201-0.070 0.078-0.154 0.299-0.154 0.908v1.87h3.56c0.268 0 0.528 0.065 0.751 0.186 0.481 0.263 0.781 0.759 0.781 1.296l-0.002 4.727c0 0.816-0.681 1.481-1.517 1.481h-3.572v11.033c0 0.817-0.681 1.482-1.518 1.482zM13.025 29.423h4.376v-11.525c0-0.546 0.455-0.989 1.013-0.989h4.077l0.002-4.109h-4.079c-0.558 0-1.013-0.444-1.013-0.989v-2.672c0-0.7 0.073-1.495 0.614-2.093 0.653-0.723 1.683-0.806 2.401-0.806l2.256-0.001v-3.772l-3.503-0.006c-3.789 0-6.144 2.369-6.144 6.181v3.169c0 0.545-0.454 0.989-1.013 0.989h-3.427v4.109h3.427c0.558 0 1.013 0.444 1.013 0.989v11.525zM22.987 2.467v0z"></path>
</symbol>
<symbol id="icon-instagram" viewBox="0 0 31 32">
<path d="M22.769 0.747h-14.318c-4.66 0-8.451 3.709-8.451 8.268v14.008c0 4.559 3.791 8.268 8.451 8.268h14.318c4.66 0 8.451-3.709 8.451-8.268v-14.008c0-4.559-3.791-8.268-8.451-8.268v0zM29.389 23.023c0 3.571-2.97 6.477-6.621 6.477h-14.318c-3.651 0-6.621-2.906-6.621-6.477v-14.008c0-3.572 2.97-6.477 6.621-6.477h14.318c3.65 0 6.62 2.906 6.62 6.477v14.008z"></path>
<path d="M15.61 7.667c-4.707 0-8.536 3.746-8.536 8.352s3.829 8.352 8.536 8.352 8.536-3.746 8.536-8.352c0-4.605-3.829-8.352-8.536-8.352zM15.61 22.579c-3.698 0-6.706-2.943-6.706-6.561s3.009-6.561 6.706-6.561c3.698 0 6.706 2.943 6.706 6.561s-3.008 6.561-6.706 6.561z"></path>
<path d="M24.35 4.701c-1.391 0-2.522 1.107-2.522 2.468s1.131 2.468 2.522 2.468 2.523-1.107 2.523-2.468c0-1.361-1.132-2.468-2.523-2.468zM24.35 7.846c-0.382 0-0.692-0.304-0.692-0.677s0.311-0.677 0.692-0.677c0.382 0 0.692 0.304 0.692 0.677s-0.311 0.677-0.692 0.677z"></path>
</symbol>
</defs>
</svg>
